<svg width="30" height="30" viewBox="0 0 30 30" fill="none" xmlns="http://www.w3.org/2000/svg">
<path d="M25.9273 6.82377V27.2857C25.9273 28.469 24.968 29.4283 23.7847 29.4283H6.21529C5.03198 29.4283 4.07267 28.469 4.07267 27.2857V6.82377C4.07267 5.64047 5.03191 4.68115 6.21529 4.68115H9.71489V7.18084H20.2494V4.68115H23.7847C24.968 4.68115 25.9273 5.64047 25.9273 6.82377Z" fill="white"/>
<path d="M20.2494 4.6814V7.18109H9.7149V2.71739H12.3218C12.5901 1.4712 13.6896 0.579761 14.9643 0.574771C16.2439 0.565954 17.3509 1.46362 17.6068 2.71739H20.2494V4.6814Z" fill="white"/>
<path d="M23.7847 3.93149H21.0708V2.71736C21.0708 2.32454 20.6423 2.146 20.2495 2.146H18.1426C17.6716 0.809115 16.3803 -0.0614108 14.9644 0.00338652C13.5517 -0.0497227 12.2667 0.816497 11.7862 2.146H9.71497C9.32215 2.146 8.92934 2.32454 8.92934 2.71736V3.93149H6.2153C4.60698 3.94864 3.29122 5.21738 3.21562 6.82399V27.2859C3.21562 28.8572 4.64403 29.9999 6.2153 29.9999H23.7847C25.356 29.9999 26.7844 28.8572 26.7844 27.2859V6.82399C26.7088 5.21738 25.3931 3.94864 23.7847 3.93149ZM10.3577 3.57435H12.3218C12.6702 3.54448 12.9516 3.27777 13.0003 2.93157C13.2118 2.0106 14.0198 1.3495 14.9644 1.32462C15.9002 1.35299 16.6961 2.0162 16.8927 2.93157C16.9568 3.28344 17.2503 3.54762 17.6069 3.57435H19.6424V6.43117H10.3577V3.57435ZM25.356 27.286C25.356 28.0716 24.5704 28.5716 23.7847 28.5716H6.2153C5.42966 28.5716 4.64403 28.0716 4.64403 27.286V6.82399C4.71689 6.00623 5.39439 5.37487 6.2153 5.3599H8.92927V7.18113C8.967 7.58126 9.31354 7.88057 9.7149 7.85965H20.2494C20.6581 7.882 21.0155 7.58679 21.0707 7.18113V5.3599H23.7847C24.6055 5.37493 25.2831 6.00623 25.3559 6.82399L25.356 27.286Z" fill="#13B7E6"/>
<path d="M8.96495 19.8225C8.7748 19.8286 8.59175 19.7502 8.46503 19.6083L7.00094 18.1084C6.72432 17.8186 6.72432 17.3626 7.00094 17.0728C7.28829 16.8103 7.73291 16.8261 8.00085 17.1085L8.96502 18.1084L11.2505 15.9301C11.5378 15.6676 11.9825 15.6834 12.2504 15.9658C12.5265 16.2191 12.545 16.6484 12.2916 16.9244C12.2785 16.9388 12.2647 16.9525 12.2504 16.9656L9.46501 19.6082C9.33309 19.7428 9.1534 19.8198 8.96495 19.8225Z" fill="#32BEA6"/>
<path d="M22.4992 18.9299H14.2858C13.8913 18.9299 13.5716 18.6101 13.5716 18.2157C13.5716 17.8212 13.8913 17.5015 14.2858 17.5015H22.4991C22.8936 17.5015 23.2133 17.8212 23.2133 18.2157C23.2134 18.6101 22.8936 18.9299 22.4992 18.9299Z" fill="#32BEA6"/>
<path d="M8.96495 14.1087C8.7748 14.1148 8.59175 14.0363 8.46503 13.8944L7.00094 12.3945C6.72432 12.1047 6.72432 11.6488 7.00094 11.359C7.28829 11.0964 7.73291 11.1123 8.00085 11.3946L8.96502 12.3945L11.2505 10.2163C11.5378 9.95371 11.9825 9.96957 12.2504 10.2519C12.5265 10.5052 12.545 10.9345 12.2916 11.2106C12.2785 11.2249 12.2647 11.2387 12.2504 11.2518L9.46501 13.8943C9.33309 14.029 9.1534 14.106 8.96495 14.1087Z" fill="#32BEA6"/>
<path d="M22.4992 13.216H14.2858C13.8913 13.216 13.5716 12.8963 13.5716 12.5018C13.5716 12.1073 13.8913 11.7876 14.2858 11.7876H22.4991C22.8936 11.7876 23.2133 12.1073 23.2133 12.5018C23.2134 12.8962 22.8936 13.216 22.4992 13.216Z" fill="#32BEA6"/>
<path d="M8.96495 25.5364C8.7748 25.5425 8.59175 25.464 8.46503 25.3221L7.00094 23.8223C6.72432 23.5325 6.72432 23.0765 7.00094 22.7867C7.28829 22.5242 7.73291 22.54 8.00085 22.8224L8.96502 23.8223L11.2505 21.644C11.5378 21.3814 11.9825 21.3973 12.2504 21.6797C12.5265 21.933 12.545 22.3622 12.2916 22.6383C12.2785 22.6526 12.2647 22.6664 12.2504 22.6795L9.46501 25.3221C9.33309 25.4567 9.1534 25.5337 8.96495 25.5364Z" fill="#32BEA6"/>
<path d="M22.4992 24.6433H14.2858C13.8913 24.6433 13.5716 24.3235 13.5716 23.929C13.5716 23.5346 13.8913 23.2148 14.2858 23.2148H22.4991C22.8936 23.2148 23.2133 23.5346 23.2133 23.929C23.2134 24.3235 22.8936 24.6433 22.4992 24.6433Z" fill="#32BEA6"/>
</svg>
