<svg width="30" height="30" viewBox="0 0 30 30" fill="none" xmlns="http://www.w3.org/2000/svg">
<path d="M15 29.5312C6.98719 29.5312 0.46875 23.0128 0.46875 15C0.46875 6.98719 6.98719 0.46875 15 0.46875C23.0128 0.46875 29.5312 6.98719 29.5312 15C29.5312 23.0128 23.0128 29.5312 15 29.5312Z" fill="white"/>
<path d="M15 0.9375C22.7541 0.9375 29.0625 7.24594 29.0625 15C29.0625 22.7541 22.7541 29.0625 15 29.0625C7.24594 29.0625 0.9375 22.7541 0.9375 15C0.9375 7.24594 7.24594 0.9375 15 0.9375ZM15 0C6.71578 0 0 6.71578 0 15C0 23.2842 6.71578 30 15 30C23.2842 30 30 23.2842 30 15C30 6.71578 23.2842 0 15 0Z" fill="#13B7E6"/>
<path d="M13.8478 23.8035V21.7551C12.3914 21.6899 10.9791 21.3018 10.1526 20.8274L10.8056 18.3027C11.7187 18.7982 13.0003 19.2515 14.4141 19.2515C15.653 19.2515 16.5005 18.7771 16.5005 17.9146C16.5005 17.0943 15.8048 16.5759 14.1961 16.0363C11.8706 15.2596 10.283 14.181 10.283 12.0885C10.283 10.1891 11.6316 8.70086 13.957 8.24758V6.19727H16.0861V8.09664C17.5425 8.1618 18.5212 8.46227 19.238 8.8082L18.608 11.2471C18.0436 11.0099 17.0433 10.5126 15.4772 10.5126C14.0648 10.5126 13.6083 11.1168 13.6083 11.7215C13.6083 12.433 14.3691 12.8863 16.2169 13.5768C18.8025 14.4834 19.8464 15.6693 19.8464 17.6127C19.8464 19.5332 18.4767 21.1724 15.9778 21.6046V23.8045H13.8478V23.8035Z" fill="#32BEA6"/>
</svg>
