<svg width="30" height="30" viewBox="0 0 30 30" fill="none" xmlns="http://www.w3.org/2000/svg">
<g clip-path="url(#clip0)">
<path d="M29.3198 5.53122H17.3986C17.1122 4.20664 15.895 3.16846 14.4988 3.16846C13.0668 3.16846 11.8854 4.17084 11.599 5.53122H0.644391C0.286396 5.53122 0 5.81762 0 6.17562C0 6.53361 0.286396 6.82001 0.644391 6.82001H11.5632C11.8496 8.14459 13.0668 9.18278 14.463 9.18278C15.895 9.18278 17.0764 8.18039 17.3628 6.82001H29.3198C29.6778 6.82001 29.9642 6.53361 29.9642 6.17562C29.9642 5.81762 29.6778 5.53122 29.3198 5.53122ZM14.4988 7.92979C13.568 7.92979 12.7804 7.178 12.7804 6.21142C12.7804 5.24483 13.5322 4.49304 14.4988 4.49304C15.4296 4.49304 16.2172 5.24483 16.2172 6.21142C16.2172 7.1422 15.4654 7.92979 14.4988 7.92979Z" fill="#13B7E6"/>
<path d="M29.3556 14.3735H11.2768C10.9905 13.0489 9.77327 12.0107 8.37709 12.0107C6.94511 12.0107 5.76372 13.0131 5.47733 14.3735H0.644391C0.286396 14.3735 0 14.6599 0 15.0179C0 15.3759 0.286396 15.6623 0.644391 15.6623H5.47733C5.76372 16.9869 6.98091 18.0251 8.37709 18.0251C9.80907 18.0251 10.9905 17.0227 11.2768 15.6623H29.3556C29.7136 15.6623 30 15.3759 30 15.0179C30 14.6599 29.7136 14.3735 29.3556 14.3735ZM8.37709 16.7363C7.4463 16.7363 6.65871 15.9845 6.65871 15.0179C6.65871 14.0871 7.4463 13.2995 8.37709 13.2995C9.30788 13.2995 10.0955 14.0513 10.0955 15.0179C10.0955 15.9487 9.34367 16.7363 8.37709 16.7363Z" fill="#32BEA6"/>
<path d="M29.3198 23.1801H23.6993C23.4129 21.8556 22.1957 20.8174 20.7995 20.8174C19.3675 20.8174 18.1862 21.8198 17.8998 23.1801H0.644391C0.286396 23.1801 0 23.4665 0 23.8245C0 24.1825 0.286396 24.4689 0.644391 24.4689H17.864C18.1504 25.7935 19.3675 26.8317 20.7637 26.8317C22.1957 26.8317 23.3771 25.8293 23.6635 24.4689H29.3198C29.6778 24.4689 29.9642 24.1825 29.9642 23.8245C29.9642 23.4665 29.6778 23.1801 29.3198 23.1801ZM20.7637 25.5787C19.8329 25.5787 19.0453 24.8269 19.0453 23.8603C19.0453 22.8938 19.8329 22.142 20.7637 22.142C21.6945 22.142 22.4821 22.8938 22.4821 23.8603C22.4821 24.8269 21.7303 25.5787 20.7637 25.5787Z" fill="#13B7E6"/>
</g>
<defs>
<clipPath id="clip0">
<rect width="30" height="30" fill="white"/>
</clipPath>
</defs>
</svg>
