<svg width="56" height="57" viewBox="0 0 56 57" fill="none" xmlns="http://www.w3.org/2000/svg">
<path d="M0.853394 47.0571H14.2113V56.5383H0.853394V47.0571Z" fill="#FEE97D"/>
<path d="M9.66095 47.0571H14.2113V56.5383H9.66095V47.0571Z" fill="#FEE45A"/>
<path d="M14.2113 38.2598H27.5692V56.5384H14.2113V38.2598Z" fill="#CEEFDD"/>
<path d="M23.0189 38.2598H27.5692V56.5384H23.0189V38.2598Z" fill="#B0E7C9"/>
<path d="M27.5692 29.4624H40.9271V56.5384H27.5692V29.4624Z" fill="#B3CEEC"/>
<path d="M36.3767 29.4624H40.9271V56.5384H36.3767V29.4624Z" fill="#98BCE5"/>
<path d="M40.9271 20.6646H54.285V56.538H40.9271V20.6646Z" fill="#FFBEE7"/>
<path d="M49.7346 20.6646H54.285V56.538H49.7346V20.6646Z" fill="#FEAEE1"/>
<path d="M48.8221 0.670907L50.4452 3.98137C50.6194 4.33661 50.9561 4.58286 51.3455 4.63984L54.9749 5.17065C55.9557 5.3141 56.3473 6.52735 55.6376 7.22369L53.0113 9.80059C52.7295 10.0771 52.6009 10.4755 52.6674 10.866L53.2874 14.5046C53.4549 15.4879 52.4296 16.2378 51.5524 15.7735L48.3062 14.0556C47.9578 13.8713 47.5417 13.8713 47.1933 14.0556L43.9471 15.7735C43.0699 16.2378 42.0446 15.488 42.2121 14.5046L42.832 10.866C42.8985 10.4755 42.77 10.0771 42.4882 9.80059L39.862 7.2238C39.1523 6.52746 39.544 5.31421 40.5247 5.17076L44.154 4.63995C44.5435 4.58297 44.8802 4.33672 45.0543 3.98148L46.6775 0.671017C47.1162 -0.223654 48.3835 -0.223654 48.8221 0.670907Z" fill="#FEE97D"/>
<path d="M34.4962 14.7661L29.0967 13.2515C28.6425 13.1246 28.172 13.389 28.0448 13.8426C27.9176 14.2964 28.1821 14.7672 28.6358 14.8945L32.4334 15.9597L0.330635 40.8482C-0.554981 41.5348 0.526088 42.8558 1.37615 42.1968L33.4126 17.3599V21.2565C33.4126 21.7278 33.7945 22.1097 34.2657 22.1097C34.7369 22.1097 35.1189 21.7277 35.1189 21.2565V15.5877C35.119 15.2052 34.8645 14.8695 34.4962 14.7661Z" fill="#EFE2DD"/>
</svg>
