<svg width="30" height="30" viewBox="0 0 30 30" fill="none" xmlns="http://www.w3.org/2000/svg">
<path d="M7.25719 4.19775H6.19102C6.35139 3.01046 7.00787 2.95081 7.30998 2.92333C7.6118 2.89585 7.84283 2.64284 7.84283 2.3398V0.586379C7.84283 0.425305 7.7765 0.271262 7.65943 0.160578C7.54236 0.0498945 7.38475 -0.00746877 7.22402 0.00137889C5.37187 0.105559 3.16406 1.04071 3.16406 4.90427V7.95349C3.16406 8.46249 3.57814 8.87657 4.08715 8.87657H7.25725C7.76625 8.87657 8.18033 8.46243 8.18027 7.95343V5.12083C8.18027 4.61183 7.76619 4.19775 7.25719 4.19775ZM7.00846 7.70464H4.33594V4.90427C4.33594 2.20837 5.53482 1.45544 6.67096 1.24292V1.85898C5.88633 2.0978 4.98328 2.80316 4.98328 4.78368C4.98328 5.1073 5.24561 5.36962 5.56922 5.36962H7.00846V7.70464Z" fill="#13B7E6"/>
<path d="M13.2475 4.19775H12.1813C12.3417 3.01046 12.9982 2.95081 13.3003 2.92333C13.6021 2.89585 13.8331 2.64284 13.8331 2.3398V0.586379C13.8331 0.425305 13.7668 0.271262 13.6497 0.160578C13.5327 0.0498945 13.3749 -0.00746877 13.2143 0.00137889C11.3622 0.105559 9.15436 1.04071 9.15436 4.90427V7.95349C9.15436 8.46249 9.56844 8.87657 10.0774 8.87657H13.2475C13.7565 8.87657 14.1707 8.46243 14.1706 7.95337V5.12083C14.1706 4.61183 13.7565 4.19775 13.2475 4.19775ZM12.9988 7.7047H10.3262V4.90427C10.3262 2.20837 11.5251 1.45544 12.6613 1.24292V1.85898C11.8766 2.0978 10.9736 2.80316 10.9736 4.78368C10.9736 5.1073 11.2359 5.36962 11.5595 5.36962H12.9988V7.7047Z" fill="#13B7E6"/>
<path d="M16.7033 4.73418C16.5943 4.6252 16.4432 4.5625 16.2891 4.5625C16.135 4.5625 15.9838 4.6252 15.8748 4.73418C15.7658 4.84316 15.7031 4.99434 15.7031 5.14844C15.7031 5.30254 15.7658 5.45371 15.8748 5.56269C15.9838 5.67168 16.135 5.73437 16.2891 5.73437C16.4432 5.73437 16.5943 5.67168 16.7033 5.56269C16.8123 5.45371 16.875 5.30254 16.875 5.14844C16.875 4.99434 16.8123 4.84316 16.7033 4.73418Z" fill="#13B7E6"/>
<path d="M19.586 4.5625H18.8476C18.524 4.5625 18.2617 4.82482 18.2617 5.14844C18.2617 5.47205 18.524 5.73437 18.8476 5.73437H19.586C24.6821 5.73437 28.8281 9.88041 28.8281 14.9765C28.8281 19.3261 25.7433 23.13 21.4929 24.0214C21.2216 24.0783 21.0273 24.3176 21.0273 24.5948V27.9994L17.4183 24.3903C17.3084 24.2805 17.1594 24.2187 17.004 24.2187H10.414C5.31791 24.2187 1.17188 20.0727 1.17188 14.9765C1.17188 13.4059 1.57283 11.855 2.33145 10.4913C2.48883 10.2085 2.38705 9.85176 2.10428 9.69443C1.82145 9.53705 1.46467 9.63883 1.3074 9.9216C0.452051 11.459 0 13.207 0 14.9765C0 20.7189 4.67168 25.3906 10.414 25.3906H16.7613L21.1989 29.8282C21.311 29.9403 21.4608 29.9999 21.6134 29.9999C21.6888 29.9999 21.765 29.9853 21.8375 29.9552C22.0564 29.8646 22.1992 29.6509 22.1992 29.4139V25.0592C24.3193 24.5098 26.2363 23.2874 27.6371 21.582C29.1608 19.7271 30 17.3813 30 14.9765C30 9.23424 25.3283 4.56256 19.586 4.5625Z" fill="#13B7E6"/>
<path d="M22.2107 10.3999H7.78925C7.46563 10.3999 7.20331 10.6622 7.20331 10.9858C7.20331 11.3095 7.46563 11.5718 7.78925 11.5718H22.2107C22.5343 11.5718 22.7967 11.3095 22.7967 10.9858C22.7967 10.6622 22.5344 10.3999 22.2107 10.3999Z" fill="#32BEA6"/>
<path d="M22.2107 13.5249H7.78925C7.46563 13.5249 7.20331 13.7872 7.20331 14.1108C7.20331 14.4345 7.46563 14.6968 7.78925 14.6968H22.2107C22.5343 14.6968 22.7967 14.4345 22.7967 14.1108C22.7967 13.7872 22.5344 13.5249 22.2107 13.5249Z" fill="#32BEA6"/>
<path d="M22.2107 16.6499H7.78925C7.46563 16.6499 7.20331 16.9123 7.20331 17.2358C7.20331 17.5594 7.46563 17.8218 7.78925 17.8218H22.2107C22.5343 17.8218 22.7967 17.5594 22.7967 17.2358C22.7967 16.9123 22.5344 16.6499 22.2107 16.6499Z" fill="#32BEA6"/>
<path d="M22.2107 19.7749H14.5237C14.2001 19.7749 13.9377 20.0373 13.9377 20.3608C13.9377 20.6844 14.2001 20.9468 14.5237 20.9468H22.2107C22.5343 20.9468 22.7966 20.6844 22.7966 20.3608C22.7966 20.0373 22.5343 19.7749 22.2107 19.7749Z" fill="#32BEA6"/>
<path d="M11.227 19.7749H11.2175C10.8939 19.7749 10.6316 20.0373 10.6316 20.3608C10.6316 20.6844 10.8939 20.9468 11.2175 20.9468H11.227C11.5506 20.9468 11.8129 20.6844 11.8129 20.3608C11.8129 20.0373 11.5506 19.7749 11.227 19.7749Z" fill="#32BEA6"/>
</svg>
