<svg width="24" height="24" viewBox="0 0 24 24" fill="none" xmlns="http://www.w3.org/2000/svg">
<path d="M23.6164 11.0676L14.9491 2.40018C14.7017 2.15277 14.372 2.01697 14.0204 2.01697C13.6684 2.01697 13.3388 2.15297 13.0914 2.40018L12.3045 3.1873C12.0573 3.43432 11.9211 3.76427 11.9211 4.11607C11.9211 4.46768 12.0573 4.80875 12.3045 5.05577L17.3608 10.1232H1.29657C0.572287 10.1232 0 10.6903 0 11.4147V12.5275C0 13.252 0.572287 13.8762 1.29657 13.8762H17.4182L12.3047 18.972C12.0575 19.2194 11.9213 19.5403 11.9213 19.8921C11.9213 20.2435 12.0575 20.5692 12.3047 20.8164L13.0916 21.601C13.339 21.8484 13.6686 21.9832 14.0206 21.9832C14.3722 21.9832 14.7019 21.8467 14.9493 21.5992L23.6166 12.932C23.8646 12.6838 24.001 12.3525 24 12.0003C24.0008 11.6469 23.8646 11.3154 23.6164 11.0676Z" fill="#3182CE"/>
</svg>
